# xmcd
#
# Track frame offsets:
#	150
#	16089
#	39105
#	55095
#
# Disc length: 940 seconds
#
# Revision: 2
# Processed by: cddbd v1.5.2PL0 Copyright (c) Steve Scherf et al.
# Submitted via: EasyCDDAExtractor 2010.4.0.0
#
DISCID=1f03aa04
DTITLE=Bent Fabric - Jukebox
DYEAR=2004
DGENRE=Pop
TTITLE0=Keep On Rising (Radio Edit)
TTITLE1=Keep On Rising (Extended Version)
TTITLE2=Keep On Rising (A Cappella)
TTITLE3=Keep On Rising (Piano)
EXTD=Ripped By DJ Christoph
EXTT0=
EXTT1=
EXTT2=
EXTT3=
PLAYORDER=
